<svg width="34" height="34" viewBox="0 0 34 34" fill="none" xmlns="http://www.w3.org/2000/svg">
<path d="M30.9091 24.7273V10.8182H9.27273V24.7273H30.9091ZM30.9091 3.09091C31.7288 3.09091 32.515 3.41656 33.0947 3.99622C33.6744 4.57587 34 5.36206 34 6.18182V24.7273C34 25.547 33.6744 26.3332 33.0947 26.9129C32.515 27.4925 31.7288 27.8182 30.9091 27.8182H9.27273C8.45297 27.8182 7.66678 27.4925 7.08712 26.9129C6.50747 26.3332 6.18182 25.547 6.18182 24.7273V6.18182C6.18182 5.36206 6.50747 4.57587 7.08712 3.99622C7.66678 3.41656 8.45297 3.09091 9.27273 3.09091H10.8182V0H13.9091V3.09091H26.2727V0H29.3636V3.09091H30.9091ZM25.5464 15.5473L18.6845 22.4091L14.5427 18.2673L16.1809 16.6291L18.6845 19.1327L23.9082 13.9091L25.5464 15.5473ZM3.09091 30.9091H24.7273V34H3.09091C2.27115 34 1.48496 33.6744 0.905306 33.0947C0.325648 32.515 0 31.7288 0 30.9091V12.3636H3.09091V30.9091Z" fill="#0A95CC"/>
<path d="M2.59082 12.8633V31.4092H24.2275V33.5H3.09082C2.4037 33.5 1.74466 33.2271 1.25879 32.7412C0.77292 32.2553 0.500024 31.5963 0.5 30.9092V12.8633H2.59082ZM13.4092 0.5V3.59082H26.7725V0.5H28.8633V3.59082H30.9092C31.5963 3.59084 32.2553 3.86377 32.7412 4.34961C33.2271 4.83546 33.5 5.49455 33.5 6.18164V24.7275C33.4999 25.4146 33.227 26.0737 32.7412 26.5596C32.2554 27.0454 31.5963 27.3183 30.9092 27.3184H9.27246C8.5854 27.3183 7.92626 27.0454 7.44043 26.5596C6.9546 26.0737 6.68171 25.4146 6.68164 24.7275V6.18164C6.68169 5.49457 6.95461 4.83545 7.44043 4.34961C7.92626 3.86378 8.5854 3.59089 9.27246 3.59082H11.3184V0.5H13.4092ZM8.77246 25.2275H31.4092V10.3184H8.77246V25.2275ZM24.8389 15.5469L18.6836 21.7012L15.249 18.2666L16.1807 17.3359L18.6846 19.8398L23.9082 14.6162L24.8389 15.5469Z" stroke="black" stroke-opacity="0.71"/>
</svg>
