<svg width="24" height="24" viewBox="0 0 24 24" fill="none" xmlns="http://www.w3.org/2000/svg">
<path d="M12 24L10.26 22.2997C8.24 20.3161 6.57 18.6049 5.25 17.1662C3.93 15.7275 2.88 14.4358 2.1 13.2909C1.32 12.146 0.7752 11.0945 0.4656 10.1362C0.156 9.17798 0.0008 8.19706 0 7.19346C0 5.14441 0.63 3.43324 1.89 2.05995C3.15 0.686648 4.72 0 6.6 0C7.64 0 8.63 0.239782 9.57 0.719346C10.51 1.19891 11.32 1.87466 12 2.74659C12.68 1.87466 13.49 1.19891 14.43 0.719346C15.37 0.239782 16.36 0 17.4 0C19.28 0 20.85 0.686648 22.11 2.05995C23.37 3.43324 24 5.14441 24 7.19346C24 8.19618 23.8452 9.17711 23.5356 10.1362C23.226 11.0954 22.6808 12.1469 21.9 13.2909C21.1192 14.4349 20.0692 15.7266 18.75 17.1662C17.4308 18.6058 15.7608 20.3169 13.74 22.2997L12 24Z" fill="#044159"/>
</svg>
