<svg width="24" height="24" viewBox="0 0 24 24" fill="none" xmlns="http://www.w3.org/2000/svg">
<path d="M17.4004 1C19.0028 1.00009 20.3044 1.5716 21.373 2.73633C22.4463 3.90614 23 5.36778 23 7.19336C23 8.09125 22.8617 8.9687 22.584 9.8291C22.3125 10.6703 21.8197 11.6353 21.0742 12.7275C20.3287 13.8198 19.3115 15.0729 18.0127 16.4902C16.7097 17.9121 15.0537 19.6101 13.041 21.585L12 22.6016L10.96 21.5859H10.9609C8.94848 19.6097 7.29161 17.9118 5.9873 16.4902C4.6878 15.0739 3.6712 13.8202 2.92676 12.7275C2.18193 11.6343 1.68862 10.6697 1.41699 9.8291C1.13936 8.96979 1.00079 8.09224 1 7.19336C1.00002 5.36778 1.5537 3.90614 2.62695 2.73633C3.69559 1.5716 4.99715 1.00009 6.59961 1C7.47918 1 8.31386 1.20154 9.11523 1.61035C9.91882 2.02032 10.6174 2.59899 11.2119 3.36133L12 4.37305L12.7881 3.36133C13.3826 2.59899 14.0812 2.02032 14.8848 1.61035C15.6861 1.20154 16.5208 1 17.4004 1Z" stroke="#585858" stroke-width="2"/>
</svg>
