<svg width="36" height="36" viewBox="0 0 36 36" fill="none" xmlns="http://www.w3.org/2000/svg">
<path d="M16.1114 16.1115L6.66821 6.66937" stroke="#0A95CC" stroke-width="2"/>
<path d="M4.77947 9.50199L9.50106 4.78093L3.83515 1.94829L1.94651 3.83672L4.77947 9.50199ZM33.0618 12.2874C33.9686 11.3816 34.5924 10.2317 34.8573 8.97771C35.1222 7.72375 35.0168 6.41984 34.5539 5.22471L31.8682 7.91005H28.0909V4.1332L30.7766 1.44786C29.5812 0.98395 28.2767 0.877669 27.0221 1.14196C25.7674 1.40626 24.6166 2.02972 23.7101 2.93639C22.8035 3.84306 22.1802 4.9938 21.9162 6.2484C21.6521 7.50301 21.7587 8.80732 22.2229 10.0024L10.0034 22.2224C8.8082 21.7583 7.50374 21.6517 6.249 21.9157C4.99425 22.1797 3.84338 22.8029 2.93661 23.7094C2.02984 24.6159 1.40631 25.7665 1.14198 27.021C0.877655 28.2756 0.983948 29.5799 1.44791 30.7751L4.13166 28.0898H7.90894V31.8666L5.2233 34.5519C6.41834 35.0158 7.72251 35.1223 8.97698 34.8583C10.2314 34.5943 11.3821 33.9713 12.2887 33.0652C13.1954 32.159 13.819 31.0088 14.0836 29.7546C14.3481 28.5003 14.2423 27.1963 13.7788 26.0012L26.0021 13.7793C27.1969 14.2413 28.5002 14.3463 29.7535 14.0815C31.0068 13.8166 32.1562 13.1933 33.0618 12.2874Z" stroke="#0A95CC" stroke-width="2" stroke-linejoin="round"/>
<path d="M17.6167 22.721L28.2006 33.3037C28.4374 33.541 28.7187 33.7292 29.0284 33.8576C29.338 33.986 29.67 34.0521 30.0052 34.0521C30.3405 34.0521 30.6724 33.986 30.9821 33.8576C31.2917 33.7292 31.573 33.541 31.8098 33.3037L33.3056 31.8081C33.5429 31.5713 33.7311 31.29 33.8596 30.9804C33.988 30.6708 34.0541 30.3389 34.0541 30.0037C34.0541 29.6685 33.988 29.3366 33.8596 29.027C33.7311 28.7174 33.5429 28.4361 33.3056 28.1993L22.7217 17.6166" stroke="#0A95CC" stroke-width="2" stroke-linejoin="round"/>
</svg>
