<svg width="34" height="34" viewBox="0 0 34 34" fill="none" xmlns="http://www.w3.org/2000/svg">
<path d="M34 34H29.1429V13.6H4.85714V34H0V9.06667L17 0L34 9.06667V34ZM7.28571 15.8667H26.7143V20.4H7.28571V15.8667ZM7.28571 22.6667H26.7143V27.2H7.28571V22.6667ZM26.7143 29.4667V34H7.28571V29.4667H26.7143Z" fill="#0A95CC"/>
<path d="M33.5 9.36621V33.5H29.6426V13.0996H4.35742V33.5H0.5V9.36621L17 0.566406L33.5 9.36621ZM26.2139 29.9668V33.5H7.78613V29.9668H26.2139ZM26.2139 23.167V26.7002H7.78613V23.167H26.2139ZM26.2139 16.3662V19.9004H7.78613V16.3662H26.2139Z" stroke="black" stroke-opacity="0.7"/>
</svg>
