<svg width="36" height="36" viewBox="0 0 36 36" fill="none" xmlns="http://www.w3.org/2000/svg">
<path d="M4.39662 31.1884C2.82411 31.1884 1 31.6342 1 29.309V25.2535C1 22.0047 1 20.3802 1.8483 19.3149C3.17431 17.6527 5.73962 18.0418 7.52123 18.0418C8.89654 18.0418 10.5897 17.8302 11.7542 18.8181C12.5261 19.4735 12.8933 20.5559 13.6277 22.7205C13.9082 23.5479 14.1088 24.6925 14.7973 25.2214C15.2342 25.5558 15.8037 25.5558 16.9427 25.5558H20.5331C22.7822 25.5558 23.5438 23.6178 24.7797 21.7969H27.4215C31.1445 21.7969 34.5922 24.209 34.9441 28.6573C35.0138 29.547 35.2076 31.1884 34.0261 31.1884H31.5729M24.778 31.1884H12.0416" stroke="#0A95CC" stroke-width="2" stroke-linecap="round" stroke-linejoin="round"/>
<path d="M7.79992 35.0003C9.67769 35.0003 11.1999 33.3089 11.1999 31.2225C11.1999 29.1361 9.67769 27.4447 7.79992 27.4447C5.92214 27.4447 4.3999 29.1361 4.3999 31.2225C4.3999 33.3089 5.92214 35.0003 7.79992 35.0003Z" stroke="#0A95CC" stroke-width="2" stroke-linecap="round" stroke-linejoin="round"/>
<path d="M28.2001 35.0003C30.0778 35.0003 31.6001 33.3089 31.6001 31.2225C31.6001 29.1361 30.0778 27.4447 28.2001 27.4447C26.3223 27.4447 24.8 29.1361 24.8 31.2225C24.8 33.3089 26.3223 35.0003 28.2001 35.0003Z" stroke="#0A95CC" stroke-width="2" stroke-linecap="round" stroke-linejoin="round"/>
<path d="M4.40002 18.0002V1.00024M29.9001 21.778L24.8001 1.00024M1 1.00024H28.2001M24.8001 21.778L21.4001 16.1114M19.7001 18.0002L23.1001 14.2225M8.65004 18.0002C8.65004 14.1658 8.44603 10.4447 4.40002 10.4447" stroke="#0A95CC" stroke-width="2" stroke-linecap="round" stroke-linejoin="round"/>
</svg>
