<svg width="24" height="24" viewBox="0 0 24 24" fill="none" xmlns="http://www.w3.org/2000/svg">
<path d="M12 1C12.4825 1 12.8807 1.12687 13.2285 1.36914L13.2344 1.37305L22.2344 7.54492L22.2432 7.55078C22.4875 7.71465 22.6703 7.91594 22.8047 8.16113C22.9382 8.40477 23.0006 8.65024 23 8.91211V21.2568C23 21.713 22.8373 22.0969 22.4434 22.457C22.0468 22.8196 21.5843 23.0006 21.001 23H16.5C16.3503 23 16.2522 22.97 16.1768 22.9219L16.1084 22.8682C16.0467 22.8115 16.017 22.7637 16.0059 22.6982L16 22.626V15.7715C16 15.1007 15.7366 14.507 15.2412 14.0557C14.7528 13.6107 14.1505 13.4018 13.502 13.4004H10.5C9.84946 13.4004 9.24482 13.61 8.75586 14.0586C8.32594 14.4532 8.0709 14.9547 8.0127 15.5215L8 15.7686V22.6289C7.99995 22.735 7.97505 22.7936 7.89355 22.8682C7.80712 22.9472 7.69906 23.0004 7.50195 23H3C2.4145 23 1.95189 22.8184 1.55664 22.457C1.21331 22.1431 1.04499 21.8101 1.00781 21.4248L1 21.2559V8.91406C1.00004 8.65156 1.06253 8.40529 1.19629 8.16113C1.33106 7.91527 1.5142 7.71358 1.75781 7.5498L1.76562 7.54492L10.7656 1.37305L10.7715 1.36914C11.1193 1.12687 11.5175 1 12 1Z" stroke="#585858" stroke-width="2"/>
</svg>
