<svg width="27" height="27" viewBox="0 0 27 27" fill="none" xmlns="http://www.w3.org/2000/svg">
<path d="M1.25 22.25C1.25 20.6587 1.88214 19.1326 3.00736 18.0074C4.13258 16.8821 5.6587 16.25 7.25 16.25H19.25C20.8413 16.25 22.3674 16.8821 23.4926 18.0074C24.6179 19.1326 25.25 20.6587 25.25 22.25C25.25 23.0456 24.9339 23.8087 24.3713 24.3713C23.8087 24.9339 23.0456 25.25 22.25 25.25H4.25C3.45435 25.25 2.69129 24.9339 2.12868 24.3713C1.56607 23.8087 1.25 23.0456 1.25 22.25Z" stroke="#585858" stroke-width="2.5" stroke-linejoin="round"/>
<path d="M13.25 10.25C15.7353 10.25 17.75 8.23528 17.75 5.75C17.75 3.26472 15.7353 1.25 13.25 1.25C10.7647 1.25 8.75 3.26472 8.75 5.75C8.75 8.23528 10.7647 10.25 13.25 10.25Z" stroke="#585858" stroke-width="2.5"/>
</svg>
